<?xml version="1.0" encoding="utf-8"?>
<!-- Generator: Adobe Illustrator 27.3.1, SVG Export Plug-In . SVG Version: 6.00 Build 0)  -->
<svg version="1.1" id="Layer_2" xmlns="http://www.w3.org/2000/svg" xmlns:xlink="http://www.w3.org/1999/xlink" x="0px" y="0px"
	 viewBox="0 0 1000 1000" style="enable-background:new 0 0 1000 1000;" xml:space="preserve">
<style type="text/css">
	.st0{fill:#FFFFFF;}
</style>
<g id="Layer_1">
	<path class="st0" d="M598.6,654.7c0,2.2,0,3.7,0,5.2c0,34.2,0,68.4,0.2,102.6c0,3.5-1,4.8-4.6,4.7c-7.3-0.2-14.7-0.1-22,0
		c-2.9,0-4.1-0.8-4.1-4.1c0.2-31.8,0.2-63.6,0.3-95.4c0-3-0.4-4.7-4.1-4.7c-49,0.1-98.1,0.1-147.1,0.2c-5.1,0-10.1,0-15.5,0v103.6
		c-2,0.1-3.5,0.3-5.1,0.3c-6.8,0-13.5-0.2-20.2,0.1c-4,0.2-5.2-0.9-5.2-4.9c0.2-15.9,0.1-31.8,0.1-47.7c0-30.4,0-60.9-0.1-91.3
		c0-2.7-0.1-4.9,3.9-4.8c29.5,0.2,59.1,0.2,88.6,0.3c18.6,0,37.2,0,55.8-0.1c1.4,0,2.8-0.1,5-0.3c-1-1.5-1.5-2.3-2.2-3
		c-8.8-9.1-12.9-20.2-12.8-32.7c0.1-29.2,3.3-58,13-85.8c8.9-25.3,22.4-47.7,43.3-65c11.2-9.3,23.5-16.5,38-19.4
		c11.1-2.2,23.1,2.5,28.4,12.7c7.4,14.2,13.8,28.9,20.6,43.4c6.7,14.5,13.4,29.1,19.9,43.7c1.5,3.4,3.5,4.5,7.2,4.5
		c17.5-0.2,35.1-0.3,52.6-0.1c15,0.2,24.7,6.5,29.3,18.7c6.8,17.9-5.4,37.6-24.5,38.3c-19.3,0.8-38.7,0.3-58,0.3
		c-6.8,0-13.5,0-20.2,0c-13.4,0-23.3-5.6-29.1-17.9c-3-6.2-5.8-12.5-8.8-18.7c-0.7-1.5-1.8-3-2.9-4.9c-7.3,20.6-9.2,41.2-8.4,62.1
		c0.1,3.4,2.5,4.1,5,4.8c14.3,3.9,28.5,8.3,42.9,11.6c11.7,2.7,20.2,9.1,26.7,19c16,24.3,32.2,48.4,48.2,72.7
		c4.5,6.7,9.1,13.4,12.9,20.5c10.2,18.9-1.3,40.4-22.7,42.4c-11.8,1.1-20.5-4.5-26.8-14.1c-17.8-27-35.5-54.1-53.2-81.2
		c-2.1-3.3-4.7-4.9-8.5-5.9c-10.3-2.5-20.5-5.6-30.7-8.4C602.3,655.6,600.9,655.2,598.6,654.7L598.6,654.7z"/>
	<path class="st0" d="M350.8,469.5c-5.8,17.3-12.2,34.4-17.2,51.8c-3.8,13.2-6.2,26.8-8.7,40.3c-1,5.4-0.8,11-0.8,16.6
		c0,52,0,104.1,0,156.1c0,8.2-1.7,15.7-7.5,22c-8.1,8.8-20.1,12-30.7,8c-11.7-4.3-19.1-14.3-19.1-26.7c-0.1-39,0-78-0.2-116.9
		c0-3-0.9-6.2-2.1-8.9c-6.6-15-13.9-29.8-20.2-45c-9.9-23.8-9.6-48.5-4.6-73.3c6.1-30,17.7-57.5,37.2-81.3
		c19.1-23.5,43-39.4,73.5-43.8c6.2-0.9,12.7-1.2,18.8-0.2c11.1,1.8,18.6,9,21.7,19.8c5.1,18,9.6,36.2,14.4,54.2
		c2.4,9.3,5,18.5,7.3,27.8c0.9,3.5,2.5,4.8,6.3,4.8c16.8-0.2,33.6-0.1,50.4,0c16.8,0.1,29.2,12.5,29.2,28.8
		c0,15.8-12.4,28.3-28.8,28.4c-25.6,0.2-51.3,0.2-76.9,0c-14.8-0.1-25.2-8.5-29-22.9c-3-11.3-5.8-22.6-8.7-33.9
		c-0.5-1.9-1.4-3.7-2.1-5.6C352.1,469.6,351.5,469.6,350.8,469.5L350.8,469.5z"/>
	<path class="st0" d="M689.2,410.8c-33.5-0.2-60.7-27-60.5-59.6c0.2-32.6,27.8-59.2,61.2-59c33.3,0.1,60.3,26.7,60.2,59.3
		C750,384.8,723.2,410.9,689.2,410.8L689.2,410.8z"/>
	<path class="st0" d="M475.3,307.6c-6.4,19.2-17.4,32.5-35.1,39.2c-22.4,8.6-43.6,5.9-62.4-9.5c-16-13.1-23-30.3-21.5-52.6
		C393,308.8,432.5,314.7,475.3,307.6L475.3,307.6z"/>
	<path class="st0" d="M522.4,287.8c0.2,6.2-1.9,14.7-6.4,22.6c-5.2,9.2-13.6,13.3-21.5,10.2c-2.7-1-5.3-2.9-7.2-5.1
		c-12.7-15.2-13.6-42.7-2.1-58.9c8.4-11.8,21.3-11.8,29.5,0.2C520.6,265.2,522.4,274.9,522.4,287.8L522.4,287.8z"/>
	<path class="st0" d="M374.2,250.5c22.5-25.1,75.4-26.9,97.9,17.4C456.9,279.8,391.8,268.3,374.2,250.5z"/>
</g>
</svg>
