<?xml version="1.0" encoding="UTF-8"?>
<svg id="Layer_1" data-name="Layer 1" xmlns="http://www.w3.org/2000/svg" viewBox="0 0 1000 1000">
  <defs>
    <style>
      .cls-1 {
        fill: #fff;
      }
    </style>
  </defs>
  <path class="cls-1" d="m427.58,502.69c-19.32,0-37.41.02-55.49,0-12.83-.02-16.63-3.8-16.64-16.66-.03-32.11-.03-64.22,0-96.33.01-12.49,3.66-16.08,16.22-16.09,42.21-.02,84.42-.02,126.63,0,13.09,0,16.46,3.39,16.47,16.57.02,32.11.03,64.22,0,96.33-.01,12.42-3.79,16.16-16.27,16.18-17.32.03-34.63,0-52.61,0v54.44c3.06,0,5.83,0,8.6,0,63.96,0,127.92,0,191.89,0,12.48,0,14.32-1.87,14.32-14.44,0-84.94,0-169.87,0-254.81,0-11.87-1.11-12.99-12.79-13.01-14.24-.03-28.49-.1-42.73.03-8.74.08-11.67,2.97-11.58,11.76.07,7.17-1.71,16.33,1.95,20.87,3.01,3.74,12.81,2.18,19.62,2.64,6.88.47,10.66,3.97,10.72,10.75.13,16.31.61,32.66-.29,48.93-.9,16.26-10.16,27.49-25.18,33.32-5.13,1.99-6.52,4.59-6.38,9.67.31,11.39-.01,22.79.1,34.18.06,6.12-1.5,11-8.44,11.7-5.58.56-8.89-3.94-8.97-11.94-.11-10.87-.31-21.76.08-32.62.2-5.84-1.09-9.01-7.27-11.39-15.68-6.03-24.91-21.1-24.72-37.88.1-8.53,2.65-11.25,11.05-11.35,9.06-.12,18.16.37,27.17-.27,2.85-.2,5.49-3.2,8.23-4.91-2.65-1.78-5.21-4.92-7.97-5.11-9.28-.64-18.63-.33-27.95-.21-7.11.09-10.54-3.3-10.54-10.35,0-18.89-2.28-23.5,21.26-22.6,9.66.37,10.07-.38,10.09-10.06.03-9.06-.13-18.13.06-27.19.22-10.22,5.22-15.19,15.49-15.26,19.16-.14,38.32-.03,57.49-.06,10.31-.02,11.43-1.21,11.49-11.79.03-4.92-.11-9.85.1-14.76.23-5.29,2.67-9.14,8.39-9.23,6.13-.09,8.66,3.86,8.87,9.54.14,3.88.08,7.77.09,11.65.01,14.38.22,14.59,14.96,14.59,3.88,0,7.77.06,11.65,0,6.2-.11,11.25,1.89,11.15,8.86-.08,6.43-4.86,8.55-10.76,8.51-5.7-.03-11.4.13-17.09,0-6.79-.16-10.19,2.87-9.93,9.78.07,1.81,0,3.62-.01,5.44,0,83.9,0,167.8,0,251.7,0,13.58,1.74,15.33,15.09,15.36,5.44.01,10.88.17,16.31-.03,7.05-.27,9.93,3.21,9.67,9.93-.08,2.07-.1,4.15,0,6.21.38,7.36-3.24,10.17-10.39,10.05-13.72-.23-27.45.06-41.17-.08-7.03-.08-11.59,2.38-11.93,10-.22,4.92-3.04,6.81-7.58,6.87-1.81.02-3.63.03-5.44.03-78.98,0-157.96.07-236.94-.16-5.16-.02-10.82-1.42-15.4-3.82-36.22-18.99-72.26-38.33-108.3-57.68-13.03-6.99-17.81-22.58-11.35-36.05,5.26-10.95,14.2-14.06,24.88-8.37,37.02,19.71,73.99,39.5,110.98,59.25,2.05,1.1,4.05,2.4,6.23,3.14,10.59,3.6,14.76.71,14.76-10.03,0-14.2,0-28.4,0-43.7Zm17.02-48.35c-.89-2.98-1.49-4.63-1.87-6.33-3.63-16.15-7.07-32.35-10.97-48.44-.63-2.59-3.25-4.7-4.95-7.03-2.22,2.1-5.45,3.8-6.49,6.38-4.37,10.78-8.24,21.77-11.95,32.8-1.39,4.12-3.55,5.66-7.9,5.46-6.97-.33-14.01-.48-20.94.15-2.38.21-4.54,2.97-6.8,4.56,2.33,1.76,4.57,4.86,7.02,5.05,8.49.64,17.08-.09,25.6.38,6.26.34,9.5-2.03,11.26-7.96,2.06-6.89,4.87-13.55,7.36-20.31,2.2,2.96,2.87,5.44,3.43,7.94,3.46,15.4,6.71,30.85,10.5,46.16.6,2.44,3.55,4.3,5.41,6.43,1.9-1.84,4.58-3.34,5.56-5.58,2.69-6.14,5.15-12.48,6.79-18.97,1.66-6.55,5.24-8.38,11.64-7.94,7.99.54,16.06.48,24.04-.13,2.31-.18,4.41-3.11,6.61-4.77-2.18-1.69-4.25-4.64-6.57-4.85-7.19-.65-14.47-.27-21.72-.28q-17.85-.02-25.05,17.26Z"/>
  <path class="cls-1" d="m448.9,610.37c64.97,0,129.94,0,194.91,0,11.61,0,11.89.28,11.91,11.63.01,5.69-.19,11.4.04,17.08.24,6.06-2.59,8.32-8.43,8.26-14.49-.15-28.99.07-43.49-.09-6.47-.07-10.75,1.79-12.6,8.76-.61,2.29-4.32,4.13-6.98,5.39-1.69.8-4.07.16-6.14.16-82.32,0-164.63,0-246.95,0-11.95,0-12.81.62-12.58,12.85.12,6.22-1.48,8.76-8.3,8.51-6.17-.22-9.58-.89-9.36-8.36.37-12.43-.63-13-13.24-13.01-20.71,0-41.42.04-62.13-.01-9.35-.02-12.26-2.74-12.27-11.88-.06-54.1-.06-108.2-.01-162.31,0-8.99,2.04-10.86,11.03-11.02.52,0,1.04,0,1.55,0,14.91-.08,15.47.45,15.48,15.04.01,35.98,0,71.96.02,107.94,0,11.11.9,12.04,11.85,12.04,65.23.01,130.46,0,195.69,0,0-.33,0-.66,0-1Z"/>
  <path class="cls-1" d="m755.86,657.71c6.99,0,13.99.04,20.98-.01,6.3-.05,9.8,2.86,9.84,9.29.07,12.69.13,25.38.02,38.07-.06,6.42-3.72,9.18-10,9.14-13.98-.08-27.97-.09-41.95,0-9.24.05-12.15,2.92-12.2,12-.08,13.73.04,27.45-.07,41.18-.07,8.29-2.46,10.77-10.58,10.86-11.91.14-23.83,0-35.74.04-6.74.02-9.98-3.17-9.94-9.98.09-13.98.09-27.97,0-41.95-.06-9.13-3.01-12.07-12.14-12.13-13.73-.09-27.45.03-41.18-.04-8.22-.05-10.96-2.55-11.06-10.42-.15-11.91.01-23.83-.06-35.74-.05-7.14,3.42-10.39,10.49-10.35,13.47.09,26.93.05,40.4,0,11.14-.05,13.52-2.5,13.55-13.87.04-12.69-.02-25.38.03-38.07.04-10.08,2.14-12.15,12.43-12.2,10.88-.06,21.76-.09,32.63.03,8.77.1,11.12,2.43,11.18,11.09.1,13.73-.03,27.45.06,41.18.06,8.81,2.84,11.66,11.58,11.83,7.25.14,14.5.03,21.75.03v.03Z"/>
  <path class="cls-1" d="m344.95,728.78c-.11,19.41-15.67,34.95-35.09,35.02-19.73.07-35.73-15.82-35.59-35.35.14-19.7,16.04-35.6,35.54-35.56,19.51.05,35.24,16.11,35.14,35.89Z"/>
  <path class="cls-1" d="m593.99,492.3c0,3.1.22,6.22-.05,9.29-.45,5.1-3.72,9-8.47,7.92-3.33-.76-7.55-4.81-8.29-8.08-1.34-5.89-.66-12.33-.27-18.5.32-4.99,3.32-8.22,8.57-8.16,5.17.06,8.06,3.16,8.49,8.24.26,3.08.05,6.19.05,9.29-.01,0-.02,0-.03,0Z"/>
</svg>