<?xml version="1.0" encoding="UTF-8"?>
<svg id="Layer_1" data-name="Layer 1" xmlns="http://www.w3.org/2000/svg" viewBox="0 0 1000 1000">
  <defs>
    <style>
      .cls-1 {
        fill: #fff;
      }
    </style>
  </defs>
  <path class="cls-1" d="m723.8,698.23c-8.72,0-17.2,0-25.67,0-17.6,0-35.21-.01-52.81,0-39.52.01-79.05.05-118.57.04-25.21,0-50.41-.07-75.62-.07-48.57,0-97.13,0-145.7.02-7.05,0-14.11.15-21.16.18-1.14,0-1.74.19-1.7,1.58.17,6.09.29,12.18.3,18.27.04,18.01.03,36.02,0,54.04,0,2.46-.32,4.92-.33,7.38,0,1.49-.62,1.82-2,1.81-14.93-.05-29.87-.04-44.8-.04-.74,0-1.49,0-2.42,0-.06-.7-.15-1.29-.15-1.88,0-36.65,0-73.3,0-109.95,0-35.69-.03-71.38-.03-107.07,0-30.96-.07-61.93.03-92.89.03-10.25,4.57-18.17,13.95-22.61,16.95-8.03,35.56,5.74,35.43,22.87-.14,19.24.12,38.47.16,57.71.07,32.33.11,64.66.13,96.98,0,4.11-.05,8.23-.33,12.32-.14,2.05.62,2.39,2.41,2.39,18.7-.05,37.4-.02,56.1-.02,125.77,0,251.54.01,377.32.01,1.37,0,2.74-.06,4.11-.04,1.05.02,1.48-.34,1.34-1.47-.18-1.42-.25-2.86-.26-4.29-.01-36.44-.08-72.89.07-109.33.02-4.59.52-9.39,1.92-13.73,2.98-9.24,10.04-14.37,19.4-15.97,8.83-1.51,16.05,1.97,21.96,8.49,2.51,2.76,3.59,5.8,3.59,9.66-.1,80.08-.08,160.16-.08,240.24,0,8.84-.03,17.67.05,26.51.01,1.6-.58,2.03-2.02,2.03-14.04-.01-28.09,0-42.13.02-1.85,0-2.69-.46-2.68-2.68.05-25.14-.04-50.28-.08-75.42,0-1.61.16-3.23.26-5.1Z"/>
  <path class="cls-1" d="m402.91,620.35c0-1.08,0-1.75,0-2.43,0-34.52.02-69.05-.06-103.57,0-2.13.63-2.71,2.62-2.7,6.03.04,12.05-.07,18.08-.07,83.23,0,166.46,0,249.69-.03,11.8,0,21.33,4.2,27.87,14.31,2.9,4.49,4.31,9.48,4.33,14.77.09,22.67.07,45.35.1,68.02,0,3.35.01,6.71.15,10.06.06,1.38-.55,1.62-1.7,1.62-3.7-.02-7.4.02-11.1.02-64.53,0-129.06.01-193.58.01-30.55,0-61.1,0-91.65-.02-1.5,0-3,0-4.75,0Z"/>
  <path class="cls-1" d="m605.82,408.33c7.33,25.34,14.59,50.45,21.93,75.84h-119.75c7.39-25.3,14.75-50.48,22.19-75.95-2.61,0-5.05,0-7.5,0-2.26,0-4.53.08-6.78-.07-1.45-.1-2.01.41-2.41,1.78-4.77,16.34-9.62,32.65-14.41,48.98-2.25,7.67-4.44,15.36-6.61,23.06-.36,1.27-.84,2.01-2.32,2.02-7.87.05-15.74.18-23.61.28-1.43.02-2.85,0-4.56,0,.15-1.01.17-1.88.41-2.69,9.62-31.65,19.08-63.35,28.99-94.91,5.32-16.94,16.84-27.86,34.3-32.01,2.96-.7,6.11-.88,9.17-.89,22.12-.08,44.25-.01,66.37-.07,21.98-.06,38.45,16.48,43.4,32.93,9.44,31.34,19.15,62.61,28.74,93.9.35,1.15.67,2.32,1,3.47-8.79,0-17.33.09-25.88-.04-3.92-.06-3.88-.26-5.01-4.02-6.8-22.58-13.62-45.16-20.45-67.73-1.22-4.04-1.27-4.02-5.52-4.01-3.01,0-6.03-.02-9.04,0-.86,0-1.72.08-2.68.12Z"/>
  <path class="cls-1" d="m386.77,298.02c.24,42.23-35.6,79.43-80.82,78.08-43.95-1.31-77.59-37.87-76.39-80.7,1.23-44.09,38.95-77.23,79.58-76.37,43.1.9,77.72,35.86,77.63,78.99Zm-78.5-59.78c-34.15.19-59.32,27.67-59.6,58.9-.28,31.12,24.34,58.94,57.97,59.81,33.72.87,60.12-26.06,61.02-57.57.91-31.72-24.01-60.73-59.39-61.14Z"/>
  <path class="cls-1" d="m311.5,534.5c0-20.23,16.85-37.28,36.87-37.31,21.35-.04,38.17,16.57,38.18,37.7.01,20.72-17.31,37.82-38.65,37.21-21.61-.61-36.49-18.49-36.4-37.61Z"/>
  <path class="cls-1" d="m532.94,308.72c-.66-18.64,14.6-34.86,33.21-35.69,19.24-.86,35.65,14.02,36.96,32.63,1.54,21.86-16.79,37.18-33.69,37.88-17.76.73-36.53-13.82-36.49-34.82Z"/>
  <path class="cls-1" d="m531.89,276.8c-2.16-3.91-4.12-7.48-6.09-11.04-4.23-7.66-8.43-15.34-12.73-22.95-.75-1.33,0-1.88.72-2.58,5.22-5.02,11.12-9.08,17.58-12.33,12.16-6.13,24.96-9.88,38.66-9.32,18.27.74,34.83,6.53,49.21,18.01,4.7,3.75,4.58,3.85,1.82,9.11-5.4,10.28-10.77,20.58-16.44,31.41-9.74-10.86-21.44-17.24-36.19-17.24-14.73,0-26.75,5.73-36.53,16.95Zm30.52-21c3.37,0,6.44-.04,9.52.02,1.29.03,1.65-.5,1.63-1.7-.04-2.32.18-4.66.01-6.97-.13-1.76.46-2.31,2.13-2.27,2.91.08,5.82.02,8.92.02,0-3.24-.08-6.17.03-9.1.06-1.66-.38-2.3-2.16-2.21-2.91.15-5.84.04-8.94.04v-10.61h-11.3v10.62c-3.22,0-6.22.06-9.22-.03-1.38-.04-1.77.46-1.73,1.79.09,2.6.09,5.2.02,7.8-.04,1.33.37,1.77,1.77,1.72,3.05-.12,6.1-.04,9.3-.04v10.92Z"/>
  <path class="cls-1" d="m341.67,583.32c8.35,0,16.71-.03,25.06.01,7.03.04,12.75,2.67,16.79,8.6,7.42,10.92.41,26.5-12.74,27.97-4.47.5-9.02.37-13.53.38-13.49.04-26.98-.05-40.47.02-7.33.04-13.48-2.24-17.59-8.59-6.64-10.23-1.5-25.95,12.55-27.82,6.47-.86,13.11-.46,19.67-.58,3.42-.06,6.85-.01,10.27-.01,0,0,0,.01,0,.02Z"/>
  <path class="cls-1" d="m312.13,293.47c8.47-4,16.68-7.88,24.89-11.75,1.92-.9,3.82-1.84,5.8-2.6,2.94-1.14,6.15.12,7.32,2.73,1.35,3,.26,6.17-2.76,7.62-12.46,5.95-24.92,11.89-37.42,17.75-4.43,2.08-7.11,1.47-8.79-1.87-.56-1.11-.85-2.49-.85-3.75-.06-14.31-.09-28.62-.03-42.93.02-4.13,2.47-6.65,6.02-6.58,2.66.05,4.89,1.88,5.35,4.5.22,1.27.32,2.59.32,3.88,0,10.34-.04,20.68-.06,31.02,0,.58.12,1.16.21,1.99Z"/>
</svg>